<svg xmlns="http://www.w3.org/2000/svg" xmlns:xlink="http://www.w3.org/1999/xlink" width="500" zoomAndPan="magnify" viewBox="0 0 375 374.999991" height="500" preserveAspectRatio="xMidYMid meet" version="1.0"><defs><g/></defs><g fill="#ff3b93" fill-opacity="1"><g transform="translate(87.585937, 354.272422)"><g><path d="M 186.382812 -301.976562 L 184.589844 -301.976562 C 184.589844 -305.113281 185.039062 -308.695312 185.039062 -311.832031 C 185.039062 -316.761719 177.871094 -332.890625 172.046875 -332.890625 C 159.949219 -332.890625 146.507812 -308.25 139.339844 -293.015625 C 117.386719 -252.242188 95.878906 -211.023438 73.925781 -169.804688 C 62.277344 -147.402344 29.121094 -153.226562 9.855469 -137.097656 C 12.992188 -131.722656 16.578125 -125.449219 22.402344 -125.449219 C 25.089844 -125.449219 28.675781 -126.347656 31.363281 -126.347656 C 40.324219 -125.449219 46.59375 -127.242188 46.59375 -117.386719 C 46.59375 -114.695312 45.699219 -112.007812 44.804688 -110.214844 L 0.894531 -15.679688 C 0 -14.335938 0 -12.992188 0 -11.199219 C 0 -8.066406 0.894531 -4.929688 0.894531 -1.34375 C 4.480469 -3.136719 10.304688 -3.136719 12.992188 -5.824219 C 17.472656 -9.410156 21.058594 -15.234375 23.746094 -20.609375 C 38.53125 -52.867188 54.660156 -84.230469 68.101562 -116.042969 C 77.511719 -138.890625 93.640625 -141.578125 112.457031 -143.371094 C 115.144531 -143.371094 121.417969 -136.652344 121.417969 -132.617188 L 121.417969 -131.722656 C 117.386719 -98.566406 108.871094 -64.070312 108.871094 -29.570312 C 108.871094 -14.335938 113.800781 11.199219 125 11.199219 C 142.921875 11.199219 159.5 -24.195312 159.5 -43.011719 C 159.5 -51.074219 146.957031 -58.246094 146.957031 -64.515625 C 152.78125 -96.328125 148.300781 -128.585938 164.875 -158.605469 C 169.804688 -167.117188 166.222656 -192.65625 169.804688 -207.441406 C 174.734375 -239.25 180.558594 -270.613281 186.382812 -301.976562 Z M 112.007812 -167.117188 C 101.703125 -167.117188 97.222656 -168.460938 97.222656 -172.941406 C 97.222656 -175.183594 98.566406 -178.316406 100.359375 -182.351562 C 109.320312 -200.71875 118.28125 -219.089844 127.691406 -236.5625 C 129.929688 -240.59375 134.859375 -242.835938 138.441406 -246.417969 C 139.339844 -242.386719 140.683594 -238.355469 140.683594 -234.769531 C 140.683594 -218.640625 133.960938 -199.824219 130.828125 -183.695312 C 128.585938 -172.941406 123.65625 -166.667969 113.800781 -167.117188 Z M 112.007812 -167.117188 "/></g></g></g></svg>